<svg width="26" height="26" viewBox="0 0 26 26" fill="none" xmlns="http://www.w3.org/2000/svg">
<g id="ICON/&#229;&#186;&#151;&#233;&#147;&#186;&#231;&#174;&#161;&#231;&#144;&#134;">
<path id="Vector" d="M8.34821 11.7207H20.7696V21.0487H8.34821V11.7207Z" fill="#A9C6FF"/>
<path id="Vector_2" d="M6.10642 13.3753L3.25226 10.5211L3.30075 10.0407C3.59097 7.215 3.88753 4.91969 3.89058 4.89684L4.00611 4.01172L21.9776 4.01502L22.0946 4.89709C22.0982 4.92502 22.4679 7.72459 22.6885 10.1093L22.7325 10.5838L20.2221 13.0945L17.8341 11.768L15.2851 13.3118L12.8179 11.7853L10.3855 13.2638L8.32581 11.832L6.10642 13.3753ZM12.8281 9.4024L15.2971 10.9302L17.7897 9.41992L19.8689 10.5749L20.6207 9.82313C20.4831 8.42258 20.3066 6.95145 20.1934 6.04576L5.79513 6.04297C5.69357 6.87477 5.53462 8.22072 5.37212 9.76803L6.34128 10.7372L8.32531 9.35645L10.4609 10.8418L12.8281 9.4024Z" fill="#333333"/>
<path id="Vector_3" d="M21.7806 22.0676H4.20874V11.0986H6.23999V20.0364H19.7493V11.0986H21.7806V22.0676Z" fill="#333333"/>
<path id="Vector_4" d="M16.4542 20.4745H14.4229V17.4678H11.5665V20.4745H9.53522V15.4365H16.4542V20.4745Z" fill="#333333"/>
</g>
</svg>
